<svg viewBox="0 0 512 512" xmlns="http://www.w3.org/2000/svg"><path d="m483.515 28.485-52.165 52.165c-44.875-44.883-106.865-72.65-175.35-72.65-132.772 0-241.176 104.338-247.69 235.493-.339 6.818 5.165 12.507 11.991 12.507h28.045c6.353 0 11.613-4.952 11.973-11.294 5.842-103.057 91.134-184.706 195.681-184.706 54.163 0 103.157 21.923 138.614 57.386l-54.128 54.129c-7.56 7.56-2.206 20.485 8.485 20.485h143.029c6.627 0 12-5.373 12-12v-143.029c0-10.691-12.926-16.045-20.485-8.486zm8.184 227.515h-28.045c-6.353 0-11.613 4.952-11.973 11.294-5.842 103.057-91.134 184.706-195.681 184.706-54.163 0-103.157-21.923-138.614-57.386l54.128-54.129c7.56-7.56 2.206-20.485-8.485-20.485h-143.029c-6.627 0-12 5.373-12 12v143.029c0 10.691 12.926 16.045 20.485 8.485l52.165-52.164c44.875 44.883 106.866 72.65 175.35 72.65 132.773 0 241.176-104.338 247.69-235.493.339-6.818-5.165-12.507-11.991-12.507z" fill="#4d4d4d"/></svg>